<svg xmlns="http://www.w3.org/2000/svg" xmlns:xlink="http://www.w3.org/1999/xlink" width="322" height="394" viewBox="0 0 322 394">
  <defs>
    <clipPath id="clip-bag">
      <rect width="322" height="394"/>
    </clipPath>
  </defs>
  <g id="bag" clip-path="url(#clip-bag)">
    <path id="Subtraction_3" data-name="Subtraction 3" d="M102,178.29H-174L-156.193-71H84.193Zm-229.451-221.1L-141,146.871H69L55.452-42.807Z" transform="translate(197 188.355)" fill="#fff"/>
    <path id="Subtraction_1" data-name="Subtraction 1" d="M67.074,63H41.947c.05-2.267.077-4.568.077-6.842,0-34.5-5.77-66.933-16.248-91.328C20.681-47.031,14.748-56.344,8.142-62.849,1.3-69.584-5.962-73-13.451-73s-14.754,3.415-21.594,10.15c-6.606,6.505-12.539,15.818-17.634,27.68C-63.157-10.775-68.927,21.659-68.927,56.158c0,2.258.026,4.56.076,6.842H-94.927A339.113,339.113,0,0,1-87.758-1.854a265.562,265.562,0,0,1,7.616-28.208,202.116,202.116,0,0,1,9.9-24.531A140.25,140.25,0,0,1-58.37-74.8,89.66,89.66,0,0,1-44.822-90.035a56.132,56.132,0,0,1,14.916-9.616A40.683,40.683,0,0,1-13.927-103a40.682,40.682,0,0,1,15.98,3.349,56.133,56.133,0,0,1,14.916,9.616A89.662,89.662,0,0,1,30.516-74.8,140.254,140.254,0,0,1,42.391-54.593a202.111,202.111,0,0,1,9.9,24.531A265.56,265.56,0,0,1,59.9-1.854,339.109,339.109,0,0,1,67.074,63Z" transform="translate(174.927 128.999)" fill="#fff"/>
  </g>
</svg>
