<svg xmlns="http://www.w3.org/2000/svg" xmlns:xlink="http://www.w3.org/1999/xlink" width="322" height="394" viewBox="0 0 322 394">
  <defs>
    <clipPath id="clip-login">
      <rect width="322" height="394"/>
    </clipPath>
  </defs>
  <g id="login" clip-path="url(#clip-login)">
    <path id="Subtraction_2" data-name="Subtraction 2" d="M-376,225a149.1,149.1,0,0,1-29.827-3.007,147.256,147.256,0,0,1-27.781-8.624,148.015,148.015,0,0,1-25.14-13.645,149.068,149.068,0,0,1-21.9-18.072,149.066,149.066,0,0,1-18.072-21.9,148.011,148.011,0,0,1-13.645-25.14,147.251,147.251,0,0,1-8.624-27.781A149.1,149.1,0,0,1-524,77a149.1,149.1,0,0,1,3.007-29.827,147.252,147.252,0,0,1,8.624-27.781,148.01,148.01,0,0,1,13.645-25.14,149.066,149.066,0,0,1,18.072-21.9,149.067,149.067,0,0,1,21.9-18.072,148.014,148.014,0,0,1,25.14-13.646,147.251,147.251,0,0,1,27.781-8.624A149.091,149.091,0,0,1-376-71a149.092,149.092,0,0,1,29.827,3.007,147.256,147.256,0,0,1,27.781,8.624,148.016,148.016,0,0,1,25.14,13.646,149.065,149.065,0,0,1,21.9,18.072,149.059,149.059,0,0,1,18.072,21.9,148.016,148.016,0,0,1,13.646,25.14,147.252,147.252,0,0,1,8.624,27.781A149.09,149.09,0,0,1-228,77a149.087,149.087,0,0,1-3.007,29.827,147.25,147.25,0,0,1-8.624,27.781,148.013,148.013,0,0,1-13.646,25.14,149.063,149.063,0,0,1-18.072,21.9,149.065,149.065,0,0,1-21.9,18.072,148.014,148.014,0,0,1-25.14,13.645,147.255,147.255,0,0,1-27.781,8.624A149.1,149.1,0,0,1-376,225Zm-3.2-148c-43.626,0-83.782,20.692-104.8,54,21.017,33.309,61.173,54,104.8,54s83.78-20.692,104.8-54C-295.421,97.691-335.577,77-379.2,77Zm.2-116a54.061,54.061,0,0,0-54,54,54.061,54.061,0,0,0,54,54,54.061,54.061,0,0,0,54-54A54.061,54.061,0,0,0-379-39Z" transform="translate(537 143)" fill="#fff"/>
  </g>
</svg>
